<?xml version="1.0" encoding="utf-8"?>
<!-- Generator: Adobe Illustrator 23.0.2, SVG Export Plug-In . SVG Version: 6.00 Build 0)  -->
<svg version="1.1" id="Шар_1" xmlns="http://www.w3.org/2000/svg" xmlns:xlink="http://www.w3.org/1999/xlink" x="0px" y="0px"
	 viewBox="0 0 404.7 353.42" style="enable-background:new 0 0 404.7 353.42;" xml:space="preserve">
<style type="text/css">
	.st0{clip-path:url(#SVGID_2_);fill:#999999;}
</style>
<g>
	<defs>
		<rect id="SVGID_1_" width="404.7" height="353.42"/>
	</defs>
	<clipPath id="SVGID_2_">
		<use xlink:href="#SVGID_1_"  style="overflow:visible;"/>
	</clipPath>
	<path class="st0" d="M332.34,155.46c-2-2.15-3.18-3.48-4.42-4.75c-36.94-37.87-73.86-75.76-110.83-113.6
		c-6.25-6.4-8.56-13.79-5.82-22.35c2.68-8.39,8.73-13.22,17.36-14.52c7.67-1.15,13.88,1.87,19.2,7.35
		c24.58,25.29,49.22,50.53,73.87,75.74c25.58,26.17,51.22,52.28,76.82,78.44c8.32,8.51,8.2,21.5-0.17,30.07
		c-49.64,50.81-99.31,101.58-148.84,152.5c-6.66,6.85-13.99,10.83-23.56,8.33c-15.79-4.12-21.07-23.29-9.6-35.4
		c14.18-14.97,28.74-29.6,43.14-44.36c23.12-23.69,46.25-47.38,69.37-71.07c0.88-0.91,1.68-1.9,3.07-3.47
		c-2.42-0.11-4-0.25-5.59-0.25c-100.82,0-201.64-0.14-302.47,0.13C4.57,198.31-4.9,180.38,2.53,166.81
		c4.22-7.7,10.87-11.36,19.62-11.36c53.07,0.01,106.14,0,159.22,0c48.75,0,97.49,0,146.24,0H332.34z"/>
</g>
</svg>
