<?xml version="1.0" encoding="utf-8"?>
<!-- Generator: Adobe Illustrator 23.0.2, SVG Export Plug-In . SVG Version: 6.00 Build 0)  -->
<svg version="1.1" id="Шар_1" xmlns="http://www.w3.org/2000/svg" xmlns:xlink="http://www.w3.org/1999/xlink" x="0px" y="0px"
	 viewBox="0 0 399.05 398.99" style="enable-background:new 0 0 399.05 398.99;" xml:space="preserve">
<style type="text/css">
	.st0{fill:#8B8B8C;}
	.st1{fill:none;}
</style>
<path class="st0" d="M399.05,15.96c-3.14,6.54-8.14,9.49-15.57,9.07c-7.46-0.43-14.95-0.15-22.43-0.08
	c-9.46,0.1-13.79,4.33-14.97,13.61c-3.43,26.98-7.1,53.92-10.61,80.89c-3.47,26.64-6.85,53.29-10.32,79.92
	c-3.15,24.17-6.47,48.32-9.5,72.5c-1.21,9.67-3,18.92-9.63,26.65c-8.44,9.84-19.3,13.47-31.85,13.46
	c-78.61-0.03-157.21-0.01-235.82-0.01c-8.31,0-16.62,0.14-24.93-0.07c-5.73-0.15-10.24-2.64-12.47-8.25
	c-1.93-4.87-1.01-10.28,3.35-13.48c2.74-2.01,6.54-3.09,9.99-3.51c4.75-0.58,9.62-0.15,14.44-0.15c81.43,0,162.86,0,244.29,0
	c12.52,0,15.92-3.43,17.41-15.79c2.89-24.04,6.17-48.03,9.3-72.04c3.19-24.5,6.39-49,9.6-73.49c3.17-24.17,6.35-48.33,9.55-72.5
	c0.98-7.39,1.77-14.82,3.12-22.15c2.83-15.4,12.5-24.73,27.06-29.48c0.74-0.24,1.4-0.71,2.09-1.08h38.9
	c2.99,2.99,5.99,5.99,8.98,8.98V15.96z"/>
<path class="st0" d="M150.04,49.88c32.42,0,64.84-0.01,97.26,0c10.2,0,14.93,4.67,14.93,14.95c0.03,60.68,0.03,121.36,0,182.04
	c-0.01,9.98-5.08,15.2-14.96,15.2c-65,0.04-130.01,0.04-195.01,0c-9.77-0.01-14.89-4.98-14.9-14.71
	c-0.07-61.01-0.07-122.03,0-183.04c0.01-9.92,4.9-14.44,14.92-14.44C84.87,49.88,117.46,49.88,150.04,49.88 M187.42,75.09v5.71
	c0,18.12,0.04,36.24-0.02,54.35c-0.03,9.4-5.15,14.45-14.47,14.46c-14.96,0.02-29.94-0.43-44.87,0.15
	c-10.34,0.4-16.27-5.95-16.05-16.15c0.39-17.78,0.11-35.57,0.09-53.35c0-1.74-0.16-3.48-0.24-5.15h-48.8v161.11h173.53V75.09H187.42
	z M137.79,124.39h23.85V75.03h-23.85V124.39z"/>
<path class="st0" d="M299.41,398.99c-20.84-0.01-37.74-16.97-37.46-37.62c0.28-20.78,16.76-37.15,37.42-37.17
	c20.73-0.02,37.86,17.13,37.59,37.62C336.69,382.45,319.97,399,299.41,398.99 M311.51,361.76c0.05-6.91-5.25-12.5-11.96-12.62
	c-6.61-0.11-12.27,5.53-12.32,12.29c-0.06,6.83,5.31,12.48,11.99,12.61C305.86,374.18,311.46,368.58,311.51,361.76"/>
<path class="st0" d="M99.79,362.01c-0.08,20.68-16.63,37.03-37.46,36.99c-20.81-0.04-37.47-16.94-37.3-37.8
	c0.18-20.58,16.94-37.06,37.62-36.99C83.61,324.27,99.87,340.83,99.79,362.01 M62.39,374.05c6.57,0.06,12.42-5.74,12.48-12.35
	c0.06-6.59-5.66-12.45-12.27-12.56c-6.58-0.11-12.42,5.67-12.49,12.35C50.04,368.16,55.75,374,62.39,374.05"/>
<rect class="st1" width="399.05" height="398.99"/>
</svg>
