<?xml version="1.0" encoding="utf-8"?>
<!-- Generator: Adobe Illustrator 23.0.2, SVG Export Plug-In . SVG Version: 6.00 Build 0)  -->
<svg version="1.1" id="Шар_1" xmlns="http://www.w3.org/2000/svg" xmlns:xlink="http://www.w3.org/1999/xlink" x="0px" y="0px"
	 viewBox="0 0 468.6 464.65" style="enable-background:new 0 0 468.6 464.65;" xml:space="preserve">
<style type="text/css">
	.st0{fill:#FFFFFF;}
</style>
<g>
	<path class="st0" d="M255.27,332.34c2.15-2,3.48-3.18,4.75-4.42c37.87-36.94,75.76-73.86,113.6-110.83
		c6.4-6.25,13.79-8.56,22.35-5.82c8.39,2.68,13.22,8.73,14.52,17.36c1.15,7.67-1.87,13.88-7.35,19.2
		c-25.29,24.58-50.53,49.22-75.75,73.87c-26.17,25.58-52.28,51.22-78.44,76.82c-8.51,8.32-21.5,8.2-30.07-0.17
		c-50.81-49.64-101.58-99.31-152.5-148.84c-6.85-6.66-10.83-13.99-8.33-23.56c4.12-15.79,23.29-21.07,35.4-9.6
		c14.97,14.18,29.6,28.74,44.36,43.14c23.69,23.12,47.38,46.25,71.07,69.37c0.91,0.88,1.9,1.68,3.47,3.07
		c0.11-2.42,0.25-4,0.25-5.59c0-100.82,0.14-201.64-0.13-302.47C212.43,4.57,230.36-4.9,243.92,2.53
		c7.7,4.22,11.36,10.87,11.36,19.62c-0.01,53.07,0,106.14,0,159.22c0,48.75,0,97.49,0,146.24
		C255.27,328.77,255.27,329.93,255.27,332.34"/>
	<path class="st0" d="M234.37,421.98c70.67,0,141.35-0.02,212.02,0.02c15.14,0.01,25.36,13.19,21.31,27.25
		c-2.76,9.58-11.2,15.38-22.49,15.38c-37.91,0.02-75.83,0.01-113.74,0.01c-102.6,0-205.2,0-307.8-0.02
		c-11.69,0-20.24-5.88-22.86-15.56c-3.79-14,6.24-27.03,21.05-27.07c30.26-0.08,60.53-0.04,90.79-0.04c40.57,0,81.15,0,121.72,0
		V421.98z"/>
</g>
</svg>
